<?xml version="1.0" encoding="UTF-8" standalone="no"?>
<svg
   xmlns:dc="http://purl.org/dc/elements/1.1/"
   xmlns:cc="http://creativecommons.org/ns#"
   xmlns:rdf="http://www.w3.org/1999/02/22-rdf-syntax-ns#"
   xmlns:svg="http://www.w3.org/2000/svg"
   xmlns="http://www.w3.org/2000/svg"
   width="512"
   height="512"
   id="svg3037"
   version="1.1">
  <defs
     id="defs5498" />
  <metadata
     id="metadata5594">
    <rdf:RDF>
      <cc:Work
         rdf:about="">
        <dc:format>image/svg+xml</dc:format>
        <dc:type
           rdf:resource="http://purl.org/dc/dcmitype/StillImage" />
        <dc:title />
      </cc:Work>
    </rdf:RDF>
  </metadata>
  <g
     id="layer3"
     style="display:inline">
    <path
       id="path5925"
       d="m 247.14062,100.56445 c -2.91275,-0.0218 -5.82352,0.11621 -8.72656,0.45117 -2.53587,0.29264 -5.06592,0.75988 -7.55665,1.38672 0.13194,1.43191 0.20984,2.87015 0.23048,4.30664 0.0205,1.42854 -0.0322,2.8588 -0.13482,4.28516 6.38773,-1.7847 13.23195,-2.11108 19.5586,-0.19336 1.38684,0.42038 2.73193,0.95683 4.05664,1.54297 -0.36356,-0.88147 -0.70057,-1.77119 -1.00976,-2.66797 -0.99456,-2.88443 -1.73123,-5.90791 -2.07032,-8.95117 -1.44878,-0.0854 -2.89842,-0.14932 -4.34766,-0.16015 z"
       style="fill:#020204;fill-opacity:1;stroke:none" />
    <path
       id="path5921"
       d="m 201.38281,125.42773 c -1.77915,3.61751 -3.17627,7.4541 -4.33397,11.35742 0.62888,-1.05806 1.35643,-2.06322 2.13476,-3.01757 1.53029,-1.87638 3.2318,-3.61254 5.07226,-5.18555 -0.36932,-0.31628 -0.72872,-0.64154 -1.06836,-0.98828 -0.65895,-0.67274 -1.25654,-1.40156 -1.80469,-2.16602 z"
       style="fill:#020204;fill-opacity:1;stroke:none" />
    <path
       style="fill:#020204;fill-opacity:1;stroke:none"
       d="m 194.35742,147.33594 c -1.76019,7.74486 -3.35411,15.54312 -6.3164,22.89844 -1.62764,4.04136 -3.64769,7.87763 -5.86914,11.60937 -6.40579,16.56694 -21.72319,47.85005 -28.00977,70.08594 -2.82915,8.35063 -5.75976,16.66852 -9.25586,24.75976 -2.12942,4.92827 -4.46709,9.7756 -6.26563,14.83399 -4.12604,11.60464 -5.29894,24.42023 -2.17578,36.33398 1.25418,4.78423 3.18386,9.38951 5.70508,13.64453 0.16572,0.27968 0.34907,0.54762 0.51953,0.82422 -0.0753,-5.44682 0.13995,-10.89769 0.66993,-16.3125 1.79481,-18.33932 6.89976,-36.28939 14.33789,-53.14844 4.90773,-11.12372 10.83271,-21.79798 17.67578,-31.84765 -0.65662,-6.34601 -0.0492,-12.82074 1.77734,-18.9336 3.016,-10.09349 9.19549,-18.89534 15.30859,-27.4746 3.53009,-4.95424 7.13721,-10.03769 8.7461,-15.9043 1.50489,-5.48744 1.15709,-11.28093 1.375,-16.9668 0.0788,-2.05984 0.24053,-4.12401 0.58594,-6.1543 -1.26616,-1.13354 -2.60919,-2.17588 -4.05079,-3.08203 -0.74912,-0.4709 -1.52275,-0.9052 -2.23828,-1.42578 -0.71552,-0.52059 -1.37676,-1.13659 -1.83007,-1.89648 -0.20906,-0.35042 -0.35817,-0.73227 -0.46876,-1.125 -0.04,-0.0868 -0.0857,-0.17084 -0.11523,-0.26172 -0.0485,-0.14872 -0.0817,-0.30241 -0.10547,-0.45703 z M 137.2793,340.40625 c 0.35345,0.59408 0.73427,1.16783 1.1289,1.73242 -0.39452,-0.56421 -0.77563,-1.13865 -1.1289,-1.73242 z m 1.47851,2.21289 c 0.28883,0.39686 0.58464,0.78965 0.89063,1.17383 -0.30646,-0.38451 -0.60138,-0.7766 -0.89063,-1.17383 z m -19.61328,0.69336 c -0.0529,8.3e-4 -0.10536,0.006 -0.1582,0.008 0.32552,-0.009 0.6509,-0.005 0.97656,0.006 -0.2725,-0.009 -0.54588,-0.018 -0.81836,-0.0137 z m -0.23242,0.0117 c -0.36248,0.011 -0.72361,0.0324 -1.08399,0.0684 0.35982,-0.0359 0.72214,-0.0569 1.08399,-0.0684 z m 1.24805,0.006 c 0.32923,0.0147 0.65665,0.0438 0.98437,0.0781 -0.32769,-0.0348 -0.65514,-0.0628 -0.98437,-0.0781 z m 1.14062,0.0918 c 0.37993,0.0434 0.75919,0.0987 1.13477,0.16796 -0.37567,-0.0693 -0.75466,-0.12406 -1.13477,-0.16796 z m 18.77149,0.89453 c 0.3445,0.41693 0.69759,0.82628 1.05859,1.23047 -0.36084,-0.40379 -0.71421,-0.81398 -1.05859,-1.23047 z m 1.31835,1.52539 c 0.47479,0.52279 0.95968,1.0373 1.45508,1.54297 -0.49534,-0.50562 -0.98022,-1.02034 -1.45508,-1.54297 z"
       id="path6020" />
    <path
       id="path5919"
       d="m 328.81445,408.06835 c -2.7901,3.00028 -5.71566,5.8857 -8.65625,8.73438 -10.79029,10.4531 -21.98182,20.78474 -35.24024,27.8496 -4.0803,2.17427 -8.33035,3.99344 -12.69531,5.47072 -7.34266,2.41321 -15.0309,3.51554 -22.73437,4.33788 -2.08105,0.22215 -4.34081,0.21505 -6.08984,0.17774 -12.09401,-0.25796 -24.20693,-2.37502 -35.39452,-6.97656 -3.07845,-1.15463 -5.9563,-2.06253 -8.60158,-3.459 7.39332,9.52554 10.44736,24.55504 13.60743,32.32813 5.94358,-1.11974 11.93323,-1.9954 17.97264,-2.13476 1.91008,-0.0441 3.83161,-0.0273 5.73049,-0.19336 5.27492,0.57734 10.58763,0.79335 15.90624,0.58399 0.66728,-0.0263 1.33271,-0.0643 1.99804,-0.10362 1.35708,0.15059 2.72644,0.23335 4.0879,0.31251 9.32833,0.54264 18.63959,1.45035 27.87891,2.84572 8.12622,1.22717 16.19451,2.83182 24.18163,4.76758 3.70889,0.8988 7.41424,1.86619 11.12696,2.79881 -4.2896,-27.19992 0.24429,-53.51986 6.89647,-76.79686 -0.005,0.005 -0.008,0.0102 -0.0136,0.0153 0.0119,-0.1863 0.0275,-0.37228 0.039,-0.5586 z"
       style="fill:#020204;fill-opacity:1;stroke:none" />
    <path
       id="path5917"
       d="m 328.84374,376.77344 c 0.037,0.6926 0.0671,1.38525 0.0995,2.07812 -0.0327,-0.69275 -0.0624,-1.38564 -0.0995,-2.07812 z"
       style="fill:#020204;fill-opacity:1;stroke:none" />
    <path
       id="path5915"
       d="m 329.07227,381.91601 c 0.031,0.83513 0.0599,1.67052 0.0839,2.50587 -0.0244,-0.83545 -0.0526,-1.67064 -0.0839,-2.50587 z"
       style="fill:#020204;fill-opacity:1;stroke:none" />
    <path
       id="path6289"
       d="m 298.43945,111.30859 c -0.21716,1.39626 -0.51022,2.77832 -0.88672,4.13477 0.378,-1.35626 0.6695,-2.73841 0.88672,-4.13477 z"
       style="fill:#020204;fill-opacity:1;stroke:none" />
    <path
       id="path6287"
       d="m 297.4121,115.92188 c -0.14872,0.50479 -0.3133,1.00397 -0.48827,1.5 0.17539,-0.49585 0.33906,-0.99542 0.48827,-1.5 z"
       style="fill:#020204;fill-opacity:1;stroke:none" />
    <path
       id="path6285"
       d="m 296.74414,117.92969 c -0.23604,0.63075 -0.48792,1.25636 -0.77149,1.86914 0.28364,-0.61289 0.53494,-1.23838 0.77149,-1.86914 z"
       style="fill:#020204;fill-opacity:1;stroke:none" />
    <path
       id="path6283"
       d="m 294.05663,128.57617 c 0.30488,0.17463 0.59455,0.37026 0.875,0.57813 -0.28031,-0.20759 -0.57041,-0.40358 -0.875,-0.57813 z"
       style="fill:#020204;fill-opacity:1;stroke:none" />
    <path
       id="path6281"
       d="m 295.16211,129.32812 c 0.0648,0.0519 0.12871,0.10426 0.19141,0.1582 -0.0627,-0.0539 -0.12668,-0.10633 -0.19141,-0.1582 z"
       style="fill:#020204;fill-opacity:1;stroke:none" />
    <path
       id="path6279"
       d="m 295.68359,129.79297 c 0.0522,0.0514 0.10598,0.1012 0.15618,0.1543 -0.0504,-0.0531 -0.10395,-0.10295 -0.15618,-0.1543 z"
       style="fill:#020204;fill-opacity:1;stroke:none" />
    <path
       style="fill:#020204;fill-opacity:1;stroke:none"
       d="m 339.61914,142.39062 c -16.75695,9.25435 -24.34465,14.92477 -27.44141,46.83204 0.68509,1.38988 1.36052,2.7837 2.00782,4.1914 5.57196,12.11733 9.40516,25.03183 11.34765,38.22656 7.29483,7.53211 13.37794,16.2363 17.94336,25.67579 13.26079,27.418 13.14474,59.36193 9.53321,89.60351 -0.11214,0.93881 -0.16866,1.39723 -0.23243,1.91797 -0.10934,0.89293 -0.21228,1.67955 -0.45312,3.29297 1.63639,0.86456 3.21006,1.61874 4.74414,2.29297 -1.55244,4.74934 -2.02032,9.82851 -1.62695,14.78906 0.36173,4.56146 1.5119,9.34927 4.63086,12.93555 2.52116,2.89893 6.04105,4.66163 9.61328,5.71875 6.14623,1.81885 12.83017,1.72431 18.92187,-0.26953 l 0.002,-0.002 0.004,0 c 9.95768,-3.33447 18.76336,-9.95915 24.72852,-18.60156 1.96616,-2.8486 3.67671,-5.99077 4.45898,-9.45898 0.11306,-0.50124 0.19781,-1.01193 0.26758,-1.52539 3.14547,-5.43273 5.29776,-11.49986 6.45703,-17.67579 2.18472,-11.63895 1.18172,-23.65751 -0.84961,-35.32421 -2.76996,-15.90893 -7.43105,-31.45936 -13.36328,-46.47852 -4.36354,-11.04756 -9.46889,-21.90961 -16.60352,-31.40625 -6.98171,-9.29311 -15.78332,-17.11556 -22.62304,-26.51367 -3.60386,-4.95187 -6.66768,-10.33593 -10.41992,-15.14844 -5.7e-4,-7.2e-4 -0.001,-0.001 -0.002,-0.002 -1.51786,-3.13406 -3.01539,-6.27684 -4.46875,-9.44141 -4.51631,-9.83395 -8.61284,-19.88851 -13.96289,-29.29492 -0.83257,-1.46385 -1.71167,-2.90525 -2.61328,-4.33399 z m 1.11914,92.37696 c 3.78436,2.18257 7.70009,4.13504 11.56641,6.17187 14.83267,6.93468 27.39475,19.20294 32.08593,34.93555 6.88268,20.57422 0.47058,42.27546 -7.29687,61.64258 -0.1276,0.12563 -0.2483,0.3057 -0.36719,0.50781 0.5184,-0.0405 1.03758,-0.0698 1.5586,-0.0762 2.43479,-0.0299 4.89146,0.28672 7.29882,0.69531 3.70707,0.6292 7.37485,1.47191 11.07032,2.16602 0.63692,0.11963 1.27678,0.23524 1.91601,0.35156 -1.03767,-0.0589 -2.07641,-0.1011 -3.11523,-0.13281 -0.38076,-0.0115 -0.76172,-0.0176 -1.14258,-0.0254 -0.82488,-0.0172 -1.64956,-0.0255 -2.47461,-0.0254 -0.29038,1.5e-4 -0.58071,-3.6e-4 -0.87109,0.002 -1.13955,0.009 -2.27912,0.0281 -3.41797,0.0703 -2.56678,0.0951 -5.1303,0.27457 -7.6875,0.51563 -0.75872,0.0715 -1.51997,0.15045 -2.2793,0.24414 -0.75949,0.0937 -1.51708,0.20217 -2.26953,0.33203 -10e-4,2.2e-4 -0.003,-2.2e-4 -0.004,0 -0.005,0.001 -0.009,0.003 -0.0137,0.004 -1.37997,0.23887 -2.73921,0.55961 -4.05664,1.00391 l 0,-0.002 c -0.71251,0.24026 -1.41469,0.50866 -2.09766,0.83203 -0.331,0.15673 -0.65564,0.32342 -0.97656,0.49805 -0.96274,0.52388 -1.88513,1.11914 -2.79687,1.73437 -1.21565,0.8203 -2.4132,1.6757 -3.66211,2.44141 -0.4748,0.29109 -0.9584,0.56742 -1.44922,0.83008 -0.003,0.002 -0.006,0.004 -0.01,0.006 -0.0583,0.0312 -0.11925,0.0571 -0.17773,0.0879 1.30278,-2.36588 2.94244,-4.54462 4.93359,-6.36523 2.23757,-2.04593 4.91816,-3.62926 7.82227,-4.48633 6.36537,-17.79901 12.00645,-36.22246 9.17969,-54.52344 -1.98352,-12.84154 -8.38555,-25.18865 -18.58203,-33.38476 -6.18751,-4.97362 -13.72609,-8.41317 -20.05665,-13.67774 -0.91091,-0.75749 -1.77944,-1.55548 -2.62695,-2.37304 z"
       id="path6277" />
    <path
       id="path6275"
       d="m 302.88086,170.5918 c 0.13396,0.29423 0.27417,0.58561 0.41016,0.87889 -0.13584,-0.29327 -0.2763,-0.58469 -0.41016,-0.87889 z"
       style="fill:#020204;fill-opacity:1;stroke:none" />
    <path
       id="path6273"
       d="m 304.24219,173.48632 c 0.73045,1.51982 1.47952,3.0321 2.24219,4.53712 -0.76238,-1.50575 -1.51196,-3.01663 -2.24219,-4.53712 z"
       style="fill:#020204;fill-opacity:1;stroke:none" />
    <path
       id="path6269"
       d="m 370.63476,358.85352 c 0.29147,0.0902 0.58303,0.18106 0.875,0.26953 -0.29212,-0.0885 -0.58337,-0.17931 -0.875,-0.26953 z"
       style="fill:#020204;fill-opacity:1;stroke:none" />
    <path
       id="path6267"
       d="m 373.97266,359.83593 c 0.64737,0.17511 1.29937,0.33689 1.95312,0.49024 -0.65378,-0.15381 -1.30572,-0.31511 -1.95312,-0.49024 z"
       style="fill:#020204;fill-opacity:1;stroke:none" />
    <path
       id="path6265"
       d="m 376.76757,360.51171 c 0.39738,0.087 0.79415,0.17377 1.19337,0.25196 -0.399,-0.0785 -0.79623,-0.16466 -1.19337,-0.25196 z"
       style="fill:#020204;fill-opacity:1;stroke:none" />
    <path
       id="path6263"
       d="m 378.97851,360.95116 c 0.27124,0.0478 0.54255,0.0933 0.81446,0.13668 -0.27165,-0.0438 -0.54347,-0.0887 -0.81446,-0.13668 z"
       style="fill:#020204;fill-opacity:1;stroke:none" />
    <path
       id="path5923"
       d="m 381.17773,361.29297 c 0.11005,0.0153 0.22004,0.0273 0.33008,0.041 -0.11005,-0.0136 -0.22006,-0.0263 -0.33008,-0.041 z"
       style="fill:#020204;fill-opacity:1;stroke:none" />
    <path
       id="path5913"
       d="m 329.19921,399.11523 c -0.0329,1.32175 -0.0788,2.64398 -0.13278,3.96484 0.0536,-1.32147 0.10056,-2.64248 0.13278,-3.96484 z"
       style="fill:#020204;fill-opacity:1;stroke:none" />
    <path
       id="path29670-2"
       d="m 329.0293,403.95509 c -0.0594,1.33727 -0.12515,2.67376 -0.20703,4.00975 0.0819,-1.33592 0.14788,-2.67256 0.20703,-4.00975 z"
       style="fill:#020204;fill-opacity:1;stroke:none" />
    <path
       id="path28712-2"
       d="M 254.93555,0.00585938 C 242.78013,-0.12632833 230.47649,2.3345734 219.77539,8.1015625 208.40226,14.23071 199.08607,24.037115 193.3457,35.611328 c -5.73769,11.568802 -7.89961,24.625067 -8.33398,37.53125 -0.42656,12.674047 0.74132,25.339244 1.21289,38.011722 0.49044,13.17956 0.22794,26.39568 1.32031,39.53906 0.35205,4.23579 0.84499,8.46836 0.83008,12.71875 -0.017,4.64726 -0.63042,9.38407 0.53516,13.88281 0.77645,2.99682 2.33073,5.76965 4.36914,8.09961 1.00581,1.14969 2.12932,2.19181 3.33593,3.12891 1.94655,-3.08689 3.62809,-6.31146 4.58985,-9.81836 1.50489,-5.48744 1.1571,-11.28095 1.375,-16.9668 0.0789,-2.05986 0.24053,-4.12404 0.58594,-6.1543 -1.26615,-1.13355 -2.60922,-2.17587 -4.05079,-3.08203 -0.74915,-0.4709 -1.52275,-0.9052 -2.23828,-1.42578 -0.71552,-0.52058 -1.37675,-1.13659 -1.83007,-1.89648 -0.20906,-0.35041 -0.35818,-0.73227 -0.46876,-1.125 -0.04,-0.0868 -0.0856,-0.17084 -0.11523,-0.26172 -0.10378,-0.31791 -0.14703,-0.65387 -0.14844,-0.98828 -0.003,-0.66881 0.15688,-1.3272 0.29102,-1.98242 0.17903,-0.87451 0.31627,-1.75875 0.48047,-2.63672 0.1642,-0.87797 0.35455,-1.74948 0.63867,-2.59571 0.72243,-2.15175 2.02444,-4.06328 3.45898,-5.82226 0.35486,-0.43511 0.72103,-0.85941 1.09375,-1.2793 0.1102,-0.12406 0.22421,-0.2445 0.33594,-0.36719 0.26652,-0.2929 0.53555,-0.58418 0.81055,-0.86914 0.12929,-0.13384 0.2595,-0.26638 0.39062,-0.39843 0.29847,-0.30089 0.60241,-0.59534 0.91016,-0.88672 0.0944,-0.0893 0.18795,-0.17918 0.2832,-0.26758 0.40908,-0.37994 0.82365,-0.75444 1.24805,-1.11719 -0.36931,-0.31628 -0.72872,-0.64154 -1.06836,-0.98828 -1.91641,-1.95652 -3.35406,-4.35205 -4.37695,-6.89258 -2.04578,-5.08106 -2.44751,-10.65005 -2.8418,-16.11328 -0.43545,-6.033587 -0.86678,-12.25422 1.04883,-17.992187 0.9578,-2.868983 2.51457,-5.571716 4.72461,-7.636719 2.21002,-2.065 5.09897,-3.458539 8.11914,-3.623046 2.26725,-0.123494 4.54372,0.440828 6.58008,1.445312 2.03635,1.004482 3.84112,2.43829 5.42382,4.066406 3.2679,3.36166 5.60958,7.56265 7.07618,12.015625 1.46659,4.452974 2.07916,9.157909 2.14648,13.845699 0.0205,1.42854 -0.0322,2.8588 -0.13477,4.28516 10e-4,-3.8e-4 0.003,-0.002 0.004,-0.002 0.32432,-0.0906 0.65393,-0.15925 0.98047,-0.24219 0.53903,-0.13694 1.07693,-0.27519 1.62109,-0.39062 0.72117,-0.1529 1.44598,-0.28917 2.17383,-0.40235 0.058,-0.009 0.11581,-0.0186 0.17383,-0.0273 0.7758,-0.1171 1.55396,-0.21192 2.33398,-0.28125 0.0404,-0.004 0.0807,-0.006 0.1211,-0.01 1.56581,-0.13405 3.13661,-0.16633 4.69922,-0.0918 0.0872,0.004 0.17451,0.005 0.26172,0.01 0.72864,0.0405 1.45427,0.10778 2.17773,0.19727 0.19637,0.0242 0.39203,0.0502 0.58789,0.0781 0.17653,0.0252 0.35322,0.0498 0.5293,0.0781 0.27611,0.0443 0.55129,0.0946 0.82617,0.14648 0.16474,0.0311 0.32989,0.0599 0.49414,0.0937 0.30112,0.0621 0.60106,0.13164 0.90039,0.20313 0.12691,0.0303 0.2543,0.0578 0.38086,0.0898 0.43322,0.1096 0.8642,0.22745 1.29297,0.35742 1.37383,0.41643 2.70475,0.94799 4.01758,1.52734 0.0128,0.006 0.0262,0.01 0.0391,0.0156 -0.36356,-0.88147 -0.70056,-1.77119 -1.00977,-2.66797 -2.35011,-6.81591 -3.28287,-14.411301 -0.84765,-21.197264 1.93224,-5.384388 5.88261,-9.903207 10.59765,-13.142578 1.46273,-1.004939 3.00986,-1.900245 4.66407,-2.542969 2.90253,-1.12775 6.101,-1.448116 9.18554,-1.021485 3.08456,0.426632 6.0522,1.588797 8.66602,3.28125 5.22765,3.384909 8.93266,8.814372 10.97656,14.697266 1.88154,5.415614 2.44116,11.23488 2.11914,16.95898 -0.25272,4.49242 -1.05753,9.0064 -2.94726,13.08985 -1.29072,2.78908 -3.13034,5.35755 -5.43164,7.37695 0.003,9.8e-4 0.006,0.003 0.01,0.004 0.38842,0.11287 0.77494,0.23038 1.15625,0.36328 0.43847,0.14986 0.87249,0.31333 1.29688,0.50195 0.35697,0.15866 0.70904,0.33358 1.05078,0.5293 7.6e-4,4.3e-4 10e-4,0.002 0.002,0.002 0.85342,0.48908 1.63454,1.10063 2.21484,1.875 3e-4,4e-4 -3e-4,0.002 0,0.002 0.11581,0.15463 0.22538,0.31654 0.32422,0.48438 0.0813,0.13812 0.15345,0.28143 0.21875,0.42773 0.001,0.003 0.003,0.005 0.004,0.008 0.0659,0.14324 0.12082,0.2904 0.17187,0.43945 0.0148,0.0189 0.0323,0.0356 0.0469,0.0547 0.76148,0.99455 1.22381,2.19741 1.4375,3.43164 0.2137,1.23422 0.18634,2.50047 0.0371,3.74414 -0.29846,2.48733 -1.07944,4.89607 -1.39844,7.38086 -0.24643,1.91963 -0.23098,3.93273 -1.07617,5.67383 -0.21467,0.44222 -0.47955,0.85195 -0.7832,1.23242 0.60705,1.05162 1.17346,2.12757 1.69531,3.2207 1.70175,3.5648 3.03308,7.29318 4.5664,10.9336 3.13356,7.43937 7.09284,14.4969 10.66211,21.73828 15.79164,-0.26085 27.06924,-5.97284 28.00977,-22.52344 0.9315,-17.11035 -1.80861,-34.1854 -2.68164,-51.29883 C 336.58467,97.342637 337.70697,78.930367 332.9707,61.480469 330.66136,52.972163 326.98316,44.849464 322.24609,37.414062 316.69565,28.701935 309.65421,20.894778 301.28906,14.833984 287.94197,5.1636355 271.4167,0.18508352 254.93555,0.00585938 Z M 282.94141,60.636719 c 1.84613,0.07422 3.63822,0.487032 5.53711,1.748047 5.27065,3.500289 7.83627,7.506536 9.81054,12.390625 0.54101,1.338472 1.05901,3.609316 0.42578,4.310547 -2.7124,-5.500318 -6.57882,-10.445896 -11.67187,-13.828126 -2.63224,-1.748112 -5.58236,-3.017203 -8.66602,-3.68164 0.4914,-1.029299 1.74565,-0.872999 2.69336,-0.919922 0.6331,-0.03168 1.25571,-0.04427 1.8711,-0.01953 z m -72.00391,3.896484 c 2.18412,0.03765 4.36707,0.56404 6.33008,1.412109 2.24344,0.969244 4.54272,2.416676 6.55664,3.919922 0.81726,0.609939 1.67268,1.23722 2.21484,2.048828 1.66294,2.489452 2.48253,5.328634 2.92383,8.263672 -1.78612,-3.809792 -4.4254,-7.401777 -7.97461,-10.3125 -1.91558,-1.57097 -4.05734,-2.950678 -6.30078,-3.919922 -1.64683,-0.711571 -3.45983,-1.182459 -5.2832,-1.341796 0.19947,-0.01813 0.4048,-0.02447 0.60547,-0.03516 0.31224,-0.01492 0.61572,-0.04584 0.92773,-0.03515 z"
       style="fill:#020204;fill-opacity:1;stroke:none" />
    <path
       id="path8633"
       d="m 151.72075,373.06442 c 5.21482,7.9961 5.75392,8.40312 10.1273,15.49787 1.71043,2.77474 2.11082,3.44912 2.99961,4.93771 5.60691,9.39077 10.7573,19.08869 17.23632,27.90039 4.22929,5.75199 8.99967,11.08972 13.25,16.82617 4.25036,5.73644 8.01769,11.96532 9.90235,18.85156 2.44892,8.94795 1.50083,18.81096 -2.75781,27.05274 -2.99586,5.79788 -7.59235,10.77353 -13.18164,14.14258 -5.58928,3.36905 -12.16009,5.11177 -18.68165,4.86718 -10.36835,-0.38884 -19.83928,-5.57101 -29.47851,-9.41015 -19.63903,-7.82188 -40.97031,-10.27529 -61.212892,-16.36719 -6.221204,-1.87223 -12.339129,-4.08831 -18.603516,-5.81055 -2.78324,-0.76518 -5.609643,-1.4383 -8.238281,-2.63085 -2.628636,-1.19258 -5.086773,-2.96624 -6.548828,-5.45508 -1.130067,-1.9237 -1.608987,-4.18906 -1.578125,-6.41992 0.03086,-2.23087 0.552907,-4.43346 1.3125,-6.53126 1.519185,-4.19556 3.974228,-7.9935 5.63086,-12.13671 2.704982,-6.76515 3.190962,-14.22522 2.826171,-21.50196 -0.36479,-7.27673 -1.544806,-14.49093 -2.042968,-21.75976 -0.222454,-3.24587 -0.307231,-6.53266 0.3125,-9.72657 0.61973,-3.19392 1.994393,-6.31545 4.33789,-8.57226 2.160556,-2.08063 5.028544,-3.31716 7.964844,-3.92969 2.936298,-0.61252 5.960241,-0.6399 8.958984,-0.57226 2.998748,0.0676 6.004713,0.22805 8.994141,-0.0176 2.989426,-0.24569 5.991565,-0.9178 8.595703,-2.40625 2.475797,-1.4151 4.501852,-3.51642 6.179688,-5.82227 1.677836,-2.30585 3.033569,-4.82658 4.423829,-7.3164 1.39026,-2.48983 2.83039,-4.97064 4.65039,-7.16602 1.81999,-2.19538 4.05123,-4.10918 6.68555,-5.20117 2.71207,-1.12423 5.76322,-1.32932 8.65039,-0.79688 2.88716,0.53245 5.61456,1.77983 8.04297,3.42969 4.8568,3.29974 8.45822,8.10225 11.9082,12.85352 3.16791,4.3628 6.28568,8.76382 9.33203,13.21289 4.5e-4,-0.007 0.002,-0.0143 0.002,-0.0215 m -19.36328,-28.01367 c -11.03242,-5.97324 -22.00472,-8.65752 -30.89067,1.4473 -2.39819,2.87367 -4.035021,5.94907 -5.539066,8.77734 -3.00809,5.65657 -5.688695,9.65239 -7.458984,10.41992 -2.934771,1.27243 -8.886153,1.53804 -15.513672,1.84766 -6.627518,0.30962 -14.419825,0.69891 -20.855469,6.05859 -3.744274,3.11828 -6.429685,7.19968 -7.392578,11.58594 -0.962893,4.38626 -0.466853,8.62225 0.390625,13.11914 2.512976,13.17889 5.401599,27.47003 -0.205078,38.79102 -1.990545,4.01925 -4.656454,8.54153 -6.36914,13.74218 -1.712685,5.20065 -2.297055,11.88823 1.242187,17.75196 2.417366,4.00497 5.821807,6.94894 9.222656,8.34765 3.400848,1.3987 6.121433,1.71086 9.572266,2.71289 4.342935,1.26104 14.251636,4.40897 18.615234,5.75196 21.518608,6.62254 41.077559,9.97929 61.591799,16.29882 3.78915,1.16728 8.66533,3.67442 14.04883,5.94336 5.3835,2.26894 11.48828,4.44283 18.35547,3.68555 14.10438,-1.55534 29.44498,-9.25159 37.14648,-22.20117 6.04585,-10.16582 6.52581,-21.4951 3.4707,-32.25586 -4.38268,-15.43666 -17.89833,-27.66889 -24.11133,-37.33789 -12.08786,-27.32713 -31.8966,-58.41651 -55.32026,-74.48636 z"
       style="color:#000000;font-style:normal;font-variant:normal;font-weight:normal;font-stretch:normal;font-size:medium;line-height:normal;font-family:sans-serif;text-indent:0;text-align:start;text-decoration:none;text-decoration-line:none;text-decoration-style:solid;text-decoration-color:#000000;letter-spacing:normal;word-spacing:normal;text-transform:none;direction:ltr;block-progression:tb;writing-mode:lr-tb;baseline-shift:baseline;text-anchor:start;white-space:normal;clip-rule:nonzero;display:inline;overflow:visible;visibility:visible;opacity:1;isolation:auto;mix-blend-mode:normal;color-interpolation:sRGB;color-interpolation-filters:linearRGB;solid-color:#000000;solid-opacity:1;fill:#000000;fill-opacity:1;fill-rule:nonzero;stroke:none;stroke-width:7.99999952;stroke-linecap:round;stroke-linejoin:round;stroke-miterlimit:4;stroke-dasharray:none;stroke-dashoffset:0;stroke-opacity:1;color-rendering:auto;image-rendering:auto;shape-rendering:auto;text-rendering:auto;enable-background:accumulate" />
    <path
       id="path3732"
       d="m 339.57227,347.80664 c -0.40662,0.003 -0.8212,0.0146 -1.24415,0.0371 l -0.004,0 c -3.46783,0.18566 -7.42105,1.14194 -10.78711,4.04102 -2.90352,2.50075 -4.44196,5.69426 -5.23633,8.73046 -0.0515,0.16811 -0.0965,0.33816 -0.13476,0.50977 -0.13363,0.56558 -0.24237,1.1278 -0.32813,1.68555 -0.55325,3.60129 -0.24955,6.72631 -0.0742,9.27343 1.04489,15.17441 1.08844,30.34408 -0.52344,45.25977 -0.88646,8.20303 -2.28963,16.46007 -3.78906,24.81445 -1.80491,10.05656 -3.84757,20.61017 -3.82422,31.73047 0.0136,6.35186 0.68835,13.71035 4.84571,20.34375 4.17136,6.65578 10.61,10.54294 16.65625,13.14453 8.60317,3.70185 18.3226,5.58125 28.07421,4.13477 8.00678,-1.18767 15.38491,-4.52636 21.70313,-9.04297 6.22096,-4.4471 11.0738,-9.67066 15.78906,-14.12891 5.51454,-5.21389 11.33966,-9.97939 17.55078,-13.99023 9.28972,-5.99878 19.98602,-10.59937 30.80274,-16.04688 6.35717,-3.20158 13.46155,-6.99959 19.00195,-13.51757 2.50726,-2.94966 4.5195,-6.29722 5.94531,-9.89649 l -0.14648,0.0996 c 0.15435,-0.37198 0.27527,-0.75696 0.36133,-1.15039 l 0.082,0.10352 c 0.70225,-2.9908 0.6145,-6.05517 -0.18164,-8.95313 -0.38759,-1.41094 -0.94927,-2.78222 -1.68555,-4.08398 -1.64123,-2.90181 -3.82855,-4.98051 -5.89453,-6.59766 -2.05116,-1.60557 -3.97816,-2.76749 -5.53516,-3.81836 -3.319,-2.24007 -6.58076,-4.91687 -9.98047,-7.74414 -3.40245,-2.82958 -6.49893,-5.47014 -8.86914,-8.27344 -2.34425,-2.77268 -3.99773,-5.7909 -4.55078,-8.64062 l 0,-0.004 c -0.0707,-0.36599 -0.13073,-0.76333 -0.18164,-1.1914 -0.33214,-3.03846 -0.26878,-4.59815 -0.50781,-6.99024 -0.34269,-3.27135 -1.05172,-6.64081 -2.36719,-9.93945 -0.96928,-2.43053 -2.35698,-5.09373 -4.68945,-7.44531 -3.08081,-3.10608 -6.70778,-4.60043 -9.83399,-5.57422 -3.0391,-0.94663 -6.28985,-1.57438 -9.68164,-1.65625 -8.24607,-0.19897 -14.81391,2.41339 -20.0957,3.02539 -4.89932,0.56763 -10.13625,-0.0324 -15.32422,-1.42188 -3.11525,-0.83443 -6.52745,-2.06153 -10.41015,-3.07031 -6.15585,-1.59941 -12.10571,-2.2366 -17.59766,-3.04297 -2.04192,-0.29981 -4.48771,-0.73076 -7.33398,-0.71289 z m 1.94726,5.43945 c 1.80158,0.0672 3.59877,0.34616 5.38672,0.60743 5.61741,0.82085 11.27924,1.46789 16.76953,2.9121 3.46425,0.91129 6.83905,2.13498 10.29688,3.07032 5.7701,1.5608 11.81496,2.30969 17.75195,1.61523 6.39177,-0.74765 12.59975,-3.15023 19.0332,-2.99414 2.63965,0.064 5.25909,0.56355 7.77735,1.35742 2.56979,0.81012 5.10167,1.97074 6.99023,3.89258 1.4353,1.4606 2.43639,3.29806 3.1875,5.20313 1.11893,2.83795 1.72057,5.8627 1.97852,8.90234 0.0212,0.24999 0.0292,0.50156 0.0469,0.75195 l -0.002,0 c 0.16904,2.44723 0.19532,4.91099 0.6582,7.31836 0.83948,4.36598 3.13175,8.348 5.98242,11.75977 2.85068,3.41177 6.25738,6.31047 9.66016,9.17187 3.39004,2.8507 6.80202,5.6884 10.45898,8.1875 1.71632,1.17291 3.48762,2.27178 5.11719,3.5625 0.77044,0.61024 1.50673,1.2715 2.18164,1.98633 l -0.002,0 c 0.37655,0.39885 0.73406,0.81488 1.06445,1.25 0.1652,0.21756 0.32387,0.44013 0.47461,0.66797 0.15074,0.22784 0.2934,0.46028 0.42774,0.69922 1.38194,2.45796 1.80379,5.44063 1.1582,8.18555 -0.26056,0.66713 -0.55327,1.32116 -0.86328,1.96679 -0.0412,0.0856 -0.0791,0.17263 -0.1211,0.25781 -6.4e-4,10e-4 -10e-4,0.003 -0.002,0.004 -1.02392,2.07838 -2.2964,4.03463 -3.78906,5.80664 -4.44944,5.28212 -10.62806,8.76798 -16.78125,11.9043 -10.49463,5.34918 -21.37025,10.04139 -31.23633,16.47656 -6.61026,4.31155 -12.71286,9.37303 -18.41797,14.82617 -4.87915,4.66366 -9.5048,9.64404 -14.97656,13.59571 -5.52097,3.9872 -11.90387,6.87612 -18.63867,7.88671 -8.19116,1.22914 -16.65486,-0.36095 -24.24805,-3.66992 -5.32065,-2.31863 -10.43904,-5.63576 -13.50391,-10.56445 -3.0766,-4.94757 -3.77933,-11.00199 -3.78711,-16.82813 -0.0138,-10.30479 1.89736,-20.50168 3.69532,-30.64843 1.49395,-8.43113 2.91521,-16.88129 3.83203,-25.39453 1.66759,-15.48467 1.6561,-31.12384 0.54297,-46.65821 -0.0184,-0.25729 -0.0343,-0.51574 -0.0527,-0.77343 -0.0357,-0.49928 -0.0667,-1.00006 -0.0957,-1.5 -0.067,-1.0211 -0.076,-2.05164 -0.0586,-3.0254 -0.006,-0.31677 0.0179,-0.58955 0.0273,-0.875 0.0339,-0.5455 0.0843,-1.09068 0.16602,-1.63281 0.0731,-0.48469 0.17794,-0.96755 0.30078,-1.44531 0.0234,-0.0917 0.045,-0.18412 0.0703,-0.27539 0.0448,-0.16055 0.0937,-0.31984 0.14453,-0.47852 0.0303,-0.0955 0.0613,-0.19048 0.0937,-0.28515 0.0707,-0.2043 0.14352,-0.40756 0.22461,-0.60742 0.008,-0.019 0.0157,-0.0377 0.0234,-0.0566 0.40035,-0.97258 0.92539,-1.88577 1.58984,-2.68555 0.004,-0.005 0.008,-0.0106 0.0117,-0.0156 0.29689,-0.35588 0.61238,-0.69701 0.9668,-1.00195 1.8263,-1.57133 4.27607,-2.26528 6.68164,-2.39844 0.60139,-0.0333 1.2022,-0.0341 1.80273,-0.0117 z m 88.64063,25.10547 0.16601,2.26172 c -0.0301,-0.51055 -0.052,-1.0223 -0.0957,-1.53125 -0.021,-0.24399 -0.0449,-0.48678 -0.0703,-0.73047 z m 0.16601,2.26172 c 0.0951,1.61103 0.1616,3.22454 0.35156,4.82227 z"
       style="color:#000000;font-style:normal;font-variant:normal;font-weight:normal;font-stretch:normal;font-size:medium;line-height:normal;font-family:sans-serif;text-indent:0;text-align:start;text-decoration:none;text-decoration-line:none;text-decoration-style:solid;text-decoration-color:#000000;letter-spacing:normal;word-spacing:normal;text-transform:none;direction:ltr;block-progression:tb;writing-mode:lr-tb;baseline-shift:baseline;text-anchor:start;white-space:normal;clip-rule:nonzero;display:inline;overflow:visible;visibility:visible;opacity:1;isolation:auto;mix-blend-mode:normal;color-interpolation:sRGB;color-interpolation-filters:linearRGB;solid-color:#000000;solid-opacity:1;fill:#000000;fill-opacity:1;fill-rule:nonzero;stroke:none;stroke-width:7.99999952;stroke-linecap:round;stroke-linejoin:round;stroke-miterlimit:4;stroke-dasharray:none;stroke-dashoffset:0;stroke-opacity:1;color-rendering:auto;image-rendering:auto;shape-rendering:auto;text-rendering:auto;enable-background:accumulate" />
    <path
       id="path28849-2"
       d="m 231.97852,104.23828 c -2.19758,2.64839 -3.91445,5.66719 -5.93555,8.44727 11.49417,-4.75495 16.97661,-6.18502 31.73242,1.18945 -1.4748,-1.87461 -2.29607,-4.16583 -3.32617,-6.31836 -1.08341,-2.26392 -2.44081,-4.43154 -4.27149,-6.14844 -6.20731,-5.525907 -13.40661,-2.890814 -18.19921,2.83008 z"
       style="fill:#020204;fill-opacity:1;stroke:none" />
    <path
       id="path14967-1-0"
       d="m 183.17969,180.58203 c -4.72037,5.89093 -9.43276,11.78778 -14.13477,17.69336 -4.84476,6.08489 -9.67997,12.1778 -14.5625,18.23242 -5.99073,7.42887 -12.12313,14.91302 -16.02344,23.62305 -3.35132,7.48406 -4.93595,15.6143 -7.23242,23.48633 -2.60797,8.93985 -6.14899,17.58677 -10.125,26.00781 -3.67135,7.77577 -7.71615,15.36845 -11.76758,22.95312 -2.94764,5.51829 -5.94281,11.15988 -6.96484,17.33204 -0.80768,4.87766 -0.33745,9.91166 0.9043,14.69726 10.07301,-2.64434 15.24145,-6.78604 28.63753,0.50218 18.91967,15.1042 45.35767,52.5763 50.17301,76.29079 0.52342,0.71186 1.0558,1.41648 1.59375,2.11719 1.91197,0.47815 3.85734,0.7821 5.83399,0.8164 2.59313,0.0449 5.21336,-0.38267 7.58789,-1.42578 2.37453,-1.04308 4.49558,-2.72016 5.90625,-4.89648 1.73443,-2.67581 2.32277,-6.00023 1.97461,-9.16992 -0.34815,-3.16969 -1.58497,-6.19487 -3.24414,-8.91797 -4.05292,-6.6518 -10.45546,-11.46429 -16.61328,-16.23438 -13.29602,-10.29958 -26.15763,-21.16406 -38.46485,-32.62695 -3.47489,-3.2365 -6.95088,-6.57525 -9.3789,-10.65625 -2.36445,-3.97414 -3.64062,-8.50226 -4.50586,-13.04492 -2.37365,-12.46199 -1.76575,-25.57879 2.47461,-37.53516 1.65887,-4.67746 3.85219,-9.14294 5.96679,-13.63281 3.66518,-7.78213 7.13352,-15.71283 11.95313,-22.83789 22.6218,-25.58395 23.11051,-42.3726 30.01172,-72.77344 z"
       style="fill:#020204;fill-opacity:1;stroke:none" />
    <path
       id="path8561"
       d="m 275.42773,89.558594 c -0.41494,-0.02032 -0.83106,-0.01617 -1.24609,0.01367 -1.77291,0.127032 -3.50172,0.732606 -5.00586,1.679687 -1.50414,0.947081 -2.7861,2.228562 -3.79297,3.693359 -2.01373,2.929597 -2.89846,6.52409 -3.04101,10.07617 -0.10701,2.66632 0.18795,5.3671 1.07226,7.88477 0.79752,2.27053 2.09435,4.38479 3.84766,6.02734 2.84208,0.78011 5.38827,1.66776 7.37109,3.37696 0.23852,0.0255 0.4771,0.0529 0.7168,0.0644 2.72748,0.13109 5.49327,-0.65478 7.73437,-2.21484 1.78546,-1.24288 3.22481,-2.9543 4.25,-4.87305 1.0252,-1.91875 1.6434,-4.04216 1.92579,-6.19922 0.49878,-3.81012 -0.0653,-7.78773 -1.82618,-11.203126 -1.76093,-3.415393 -4.74977,-6.228254 -8.35547,-7.556641 -1.17128,-0.431517 -2.40551,-0.708594 -3.65039,-0.769531 z m 1.75,4.251953 c 0.26335,-0.01035 0.524,0.0053 0.75977,0.03516 2.03964,0.258403 4.08405,1.64349 5.33984,3.496094 1.38335,2.041477 2.81557,5.168969 1.78907,7.468749 -0.26245,0.58761 -1.07968,0.93017 -1.6211,0.69922 -1.72488,-0.73621 -1.39056,-3.9851 -2.61914,-5.550782 -0.64186,-0.818032 -1.52718,-1.352271 -2.375,-1.871093 -0.87289,-0.534403 -2.10225,-0.414389 -2.75976,-1.259766 -0.40601,-0.522107 -0.77029,-1.412618 -0.47461,-2.023437 0.34406,-0.711165 1.17093,-0.963208 1.96093,-0.994145 z"
       style="fill:#020204;fill-opacity:1;stroke:none" />
    <path
       id="path8579"
       d="m 210.02148,91.09375 c -0.78839,0.05745 -1.5635,0.241343 -2.2832,0.568359 -1.59795,0.72609 -2.8348,2.108763 -3.64453,3.666016 -0.80971,1.557251 -1.22676,3.287947 -1.51367,5.019535 -0.63101,3.80831 -0.65293,7.80409 0.65625,11.43554 0.86447,2.39795 2.28875,4.57384 4.02148,6.44336 1.13454,1.2241 2.42266,2.33724 3.92774,3.0586 2.94524,-1.23616 7.11563,-6.0493 10.89062,-6.75782 1.11239,-4.14055 0.86709,-8.60046 -0.40039,-12.70312 -0.97814,-3.166081 -2.59833,-6.218744 -5.13281,-8.353517 -1.20923,-1.018522 -2.62587,-1.816197 -4.16406,-2.181641 -0.7691,-0.182722 -1.56905,-0.252773 -2.35743,-0.195312 z m 3.50782,3.998047 c 0.5734,-0.0068 1.21165,0.224536 1.69726,0.482422 1.68025,0.89233 3.04529,2.669796 3.59766,4.546871 0.60866,2.0684 0.94959,5.00517 -0.58789,6.46094 -0.393,0.37213 -1.19398,0.36429 -1.59375,0 -1.27358,-1.16038 -0.0612,-3.59522 -0.67188,-5.23828 -0.31901,-0.85841 -0.92849,-1.577993 -1.50976,-2.271484 -0.59842,-0.714163 -1.68903,-1.034694 -2.01367,-1.919922 -0.20035,-0.546484 -0.26011,-1.367071 0.16796,-1.746094 0.24917,-0.220551 0.57001,-0.310349 0.91407,-0.314453 z"
       style="fill:#020204;fill-opacity:1;stroke:none" />
    <path
       id="path8549"
       d="m 228.08984,109.29297 c -7.99238,2.77571 -15.2115,7.71154 -20.70898,14.14258 -3.06012,2.53215 -5.99803,5.21347 -8.79883,8.02929 -3.80198,5.08552 -6.60437,13.99369 -4.18553,14.46666 0.0578,-0.37109 0.13363,-0.74129 0.20899,-1.10937 0.35807,-1.74902 0.55091,-3.53997 1.11914,-5.23243 0.72243,-2.15175 2.02444,-4.06328 3.45898,-5.82226 2.50818,-3.07544 5.4714,-5.77824 8.76368,-7.99414 5.40699,-6.35667 12.53658,-11.23481 20.41992,-13.97266 7.09674,-2.46466 14.95501,-3.17927 22.14453,-1 3.21559,0.97471 6.23378,2.50061 9.19531,4.08789 2.88071,1.54397 5.72684,3.15405 8.6543,4.60742 5.88874,2.92354 12.09933,5.2031 18.49023,6.7461 2.08045,0.50229 4.1966,0.93349 6.15235,1.80273 1.42789,0.63464 2.79885,1.54615 3.59179,2.89258 0.63332,1.57711 1.29077,2.22987 1.48047,0.52549 -0.16568,-2.85249 -2.42517,-4.85763 -4.72851,-5.90039 -2.06851,-0.91936 -4.23682,-1.35224 -6.29688,-1.84961 -6.32736,-1.52766 -12.47906,-3.78751 -18.3125,-6.68359 -2.90011,-1.4398 -5.73879,-3.04564 -8.63086,-4.59571 -2.97352,-1.59371 -6.03988,-3.14714 -9.34961,-4.15039 -7.63373,-2.04432 -15.85459,-1.31475 -22.66799,1.00981 z"
       style="color:#000000;font-style:normal;font-variant:normal;font-weight:normal;font-stretch:normal;font-size:medium;line-height:normal;font-family:sans-serif;text-indent:0;text-align:start;text-decoration:none;text-decoration-line:none;text-decoration-style:solid;text-decoration-color:#000000;letter-spacing:normal;word-spacing:normal;text-transform:none;direction:ltr;block-progression:tb;writing-mode:lr-tb;baseline-shift:baseline;text-anchor:start;white-space:normal;clip-rule:nonzero;display:inline;overflow:visible;visibility:visible;opacity:1;isolation:auto;mix-blend-mode:normal;color-interpolation:sRGB;color-interpolation-filters:linearRGB;solid-color:#000000;solid-opacity:1;fill:#000000;fill-opacity:1;fill-rule:nonzero;stroke:none;stroke-width:1.69580126;stroke-linecap:butt;stroke-linejoin:miter;stroke-miterlimit:4;stroke-dasharray:none;stroke-dashoffset:0;stroke-opacity:1;color-rendering:auto;image-rendering:auto;shape-rendering:auto;text-rendering:auto;enable-background:accumulate" />
    <path
       id="path8535"
       d="m 298.61523,137.59375 c -0.0143,0.48453 -0.0458,0.9683 -0.10351,1.44922 -0.29848,2.48733 -1.07944,4.89607 -1.39844,7.38086 -0.24645,1.91963 -0.23098,3.93273 -1.07617,5.67383 -0.87848,1.80967 -2.59053,3.08959 -4.41016,3.94726 -1.81963,0.85769 -3.78305,1.35921 -5.66992,2.05664 -8.64674,3.19601 -15.20479,10.27694 -23.05273,15.11328 -4.12862,2.54428 -8.62723,4.46782 -13.2793,5.83789 -5.01978,1.47835 -10.29133,2.31813 -15.49805,1.79493 -4.43375,-0.44554 -8.79744,-1.90368 -12.44531,-4.46289 -5.16592,-3.62424 -8.58753,-9.15817 -12.45508,-14.14454 -2.88269,-3.7166 -6.12919,-7.23514 -10.11133,-9.73828 -0.74915,-0.4709 -1.52275,-0.9052 -2.23828,-1.42578 -0.71552,-0.52058 -1.37673,-1.13659 -1.83007,-1.89648 -0.20906,-0.35041 -0.35807,-0.7325 -0.46876,-1.125 -0.04,-0.087 -0.0856,-0.17084 -0.11523,-0.26172 -0.10378,-0.31791 -0.14703,-0.65387 -0.14844,-0.98828 -2.1e-4,-0.0498 0.0122,-0.0987 0.0137,-0.14844 -2.83204,1.36332 -2.73536,6.12263 -1.40234,7.51172 5.36414,3.30766 10.23464,7.42596 14.38672,12.16601 3.82274,4.36408 7.36545,9.78182 12.96875,13.47657 4.10998,2.71004 8.88011,4.10009 13.62109,4.52148 5.59674,0.49745 11.14226,-0.32054 16.38282,-1.73047 4.80315,-1.29223 9.50742,-3.11984 13.88281,-5.62695 8.22699,-4.71409 14.7613,-11.22173 22.56055,-13.70508 1.7096,-0.54437 3.74426,-0.94726 5.87695,-1.85156 1.06759,-0.45266 2.15505,-1.03819 3.16015,-1.84961 1.00996,-0.81532 1.9198,-1.8482 2.55079,-3.125 0.0704,-3.87251 6.45008,-18.03055 0.29885,-18.84961 z"
       style="color:#000000;font-style:normal;font-variant:normal;font-weight:normal;font-stretch:normal;font-size:medium;line-height:normal;font-family:sans-serif;text-indent:0;text-align:start;text-decoration:none;text-decoration-line:none;text-decoration-style:solid;text-decoration-color:#000000;letter-spacing:normal;word-spacing:normal;text-transform:none;direction:ltr;block-progression:tb;writing-mode:lr-tb;baseline-shift:baseline;text-anchor:start;white-space:normal;clip-rule:nonzero;display:inline;overflow:visible;visibility:visible;opacity:1;isolation:auto;mix-blend-mode:normal;color-interpolation:sRGB;color-interpolation-filters:linearRGB;solid-color:#000000;solid-opacity:1;fill:#000000;fill-opacity:1;fill-rule:nonzero;stroke:none;stroke-width:5.08699989;stroke-linecap:round;stroke-linejoin:round;stroke-miterlimit:4;stroke-dasharray:none;stroke-dashoffset:0;stroke-opacity:1;color-rendering:auto;image-rendering:auto;shape-rendering:auto;text-rendering:auto;enable-background:accumulate" />
    <path
       id="path8591"
       d="m 287.39453,136.05664 c -0.78985,-0.007 -1.57275,0.0786 -2.32422,0.32031 -0.98597,0.31719 -1.87261,0.89011 -2.67187,1.54883 -0.79928,0.65874 -1.52049,1.40756 -2.26563,2.12695 -2.1953,2.11947 -4.60747,4.00076 -7.05273,5.82618 -5.38309,4.0185 -11.01618,7.81354 -17.26563,10.27734 -4.08082,1.60884 -8.3683,2.62746 -12.66992,3.48633 -5.41286,1.08075 -10.91605,1.91761 -16.43164,1.70508 -5.51561,-0.21254 -11.07906,-1.52436 -15.74414,-4.47461 -2.11136,-1.33524 -4.00872,-2.98187 -6.06641,-4.39844 -2.05766,-1.41657 -4.34402,-2.62207 -6.82617,-2.9043 -0.5499,-0.0626 -1.10632,-0.08 -1.64844,-0.1914 -0.17975,-0.037 -0.35581,-0.0913 -0.52929,-0.1543 -0.0661,0.40767 -0.0319,0.8253 0.0996,1.2168 0.77737,2.08135 2.49973,2.87217 4.60547,3.31054 1.36428,0.3207 2.78321,1.25383 4.16015,2.49219 1.38854,1.24877 2.78906,2.8354 4.59961,4.30859 4.9142,3.99857 11.20225,5.54392 17.19727,5.64258 5.9633,0.0982 11.67579,-1.13187 17.14257,-2.36328 4.29301,-0.96698 8.68496,-1.99573 12.99219,-3.58398 6.62029,-2.44119 12.74782,-6.12542 18.05469,-10.74219 2.40412,-2.09152 4.48588,-4.18045 6.73633,-5.59375 1.99036,-1.24996 4.52746,-2.19258 7.11719,-3.7207 0.23832,-0.14059 0.56456,-0.33386 0.93164,-0.63868 0.38099,-0.3163 0.79568,-0.74796 1.10937,-1.37695 0.28061,-0.56271 0.39348,-1.12869 0.41016,-1.66406 -0.43222,-0.0714 -0.86387,-0.14669 -1.29492,-0.21875 -0.77859,-0.13016 -1.57539,-0.2295 -2.36523,-0.23633 z"
       style="color:#000000;font-style:normal;font-variant:normal;font-weight:normal;font-stretch:normal;font-size:medium;line-height:normal;font-family:sans-serif;text-indent:0;text-align:start;text-decoration:none;text-decoration-line:none;text-decoration-style:solid;text-decoration-color:#000000;letter-spacing:normal;word-spacing:normal;text-transform:none;direction:ltr;block-progression:tb;writing-mode:lr-tb;baseline-shift:baseline;text-anchor:start;white-space:normal;clip-rule:nonzero;display:inline;overflow:visible;visibility:visible;opacity:1;isolation:auto;mix-blend-mode:normal;color-interpolation:sRGB;color-interpolation-filters:linearRGB;solid-color:#000000;solid-opacity:1;fill:#020204;fill-opacity:1;fill-rule:nonzero;stroke:none;stroke-width:5.08740377;stroke-linecap:round;stroke-linejoin:round;stroke-miterlimit:4;stroke-dasharray:none;stroke-dashoffset:0;stroke-opacity:1;color-rendering:auto;image-rendering:auto;shape-rendering:auto;text-rendering:auto;enable-background:accumulate" />
    <path
       id="path8597"
       d="m 247.52802,115.12831 c -0.73108,0.0373 -1.41389,0.18898 -2.03304,0.53325 -0.37835,0.21032 -0.79532,0.7199 -0.66657,1.13317 0.39468,1.2668 2.41989,1.05883 3.59947,1.66643 1.03508,0.53314 1.86908,1.69948 3.03291,1.73308 1.11071,0.032 2.85505,-0.39803 2.99955,-1.49984 0.19089,-1.45557 -1.93174,-2.36627 -3.29952,-2.89952 -1.10005,-0.42895 -2.41435,-0.72843 -3.6328,-0.66657 z m -22.79667,0.89981 c -1.48401,0.2004 -3.31543,2.40296 -2.59963,3.59948 0.22469,0.37562 0.90318,0.85459 1.36648,0.59991 0.69833,-0.38384 1.27638,-1.76145 2.03302,-2.29961 0.50523,-0.35931 0.38968,-1.67485 -0.19996,-1.86639 -0.18944,-0.0619 -0.38792,-0.0619 -0.59991,-0.0331 z"
       style="fill:#020204;fill-opacity:1;stroke:none" />
    <path
       style="display:inline;fill:none;fill-opacity:1;stroke:none;stroke-opacity:1"
       clip-path="none"
       d="M 399.62162 340.51681 L 392.05694 338.08822 C 389.01262 337.11086 385.9228 336.19236 382.73781 335.9112 C 379.55283 335.63005 376.30806 335.96682 373.27088 336.96612 L 373.27088 336.96612 L 370.65721 338.77633 "
       id="path6521" />
    <path
       style="display:inline;fill:none;fill-opacity:1;stroke:none;stroke-opacity:1"
       clip-path="none"
       d="M 358.91264 350.17644 C 359.86896 349.71754 360.80174 349.20956 361.70603 348.65514 C 364.20386 347.12373 366.49217 345.23446 369.14023 343.98062 C 372.46835 342.40478 376.1945 341.91169 379.86058 341.5661 C 382.41778 341.32504 384.98112 341.14585 387.5479 341.05071 C 392.54419 340.86555 397.55226 340.99933 402.53153 341.45102 L 399.62162 340.51681 "
       id="path6519" />
    <path
       style="display:inline;fill:none;fill-opacity:1;stroke:none;stroke-opacity:1"
       clip-path="none"
       d="M 363.30619 343.86759 L 358.96256 346.87596 L 358.28892 350.46726 C 358.49789 350.37263 358.70582 350.27568 358.91264 350.17644 "
       id="path6517" />
    <path
       style="display:inline;fill:none;fill-opacity:1;stroke:none;stroke-opacity:1"
       clip-path="none"
       d="M 370.65721 338.77633 L 363.30619 343.86759 "
       id="path29714-3-9-3-8-1" />
  </g>
</svg>
