<?xml version="1.0" encoding="UTF-8" standalone="no"?>
<svg
   xmlns:dc="http://purl.org/dc/elements/1.1/"
   xmlns:cc="http://creativecommons.org/ns#"
   xmlns:rdf="http://www.w3.org/1999/02/22-rdf-syntax-ns#"
   xmlns:svg="http://www.w3.org/2000/svg"
   xmlns="http://www.w3.org/2000/svg"
   id="svg2"
   height="170px"
   version="1.1"
   viewBox="0 0 170 170"
   width="170px">
  <metadata
     id="metadata10">
    <rdf:RDF>
      <cc:Work
         rdf:about="">
        <dc:format>image/svg+xml</dc:format>
        <dc:type
           rdf:resource="http://purl.org/dc/dcmitype/StillImage" />
        <dc:title></dc:title>
      </cc:Work>
    </rdf:RDF>
  </metadata>
  <defs
     id="defs8" />
  <path
     id="path4"
     d="m 153.59607,132.48161 c -2.57091,5.93933 -5.61402,11.40645 -9.13984,16.43284 -4.80603,6.85226 -8.7411,11.59533 -11.77372,14.2292 -4.70109,4.32332 -9.73798,6.53745 -15.13164,6.66338 -3.87211,0 -8.54172,-1.10182 -13.97736,-3.33694 -5.453475,-2.22462 -10.465176,-3.32644 -15.047692,-3.32644 -4.806027,0 -9.960438,1.10182 -15.473729,3.32644 -5.521685,2.23512 -9.969884,3.3999 -13.370831,3.51533 -5.172251,0.22036 -10.327713,-2.05673 -15.47373,-6.84177 -3.284468,-2.86473 -7.392678,-7.77569 -12.314134,-14.73289 -5.280334,-7.42941 -9.621499,-16.04458 -13.022446,-25.8665 -3.642297,-10.60894 -5.468168,-20.88209 -5.468168,-30.827836 0,-11.392804 2.461778,-21.218927 7.392678,-29.453184 3.875253,-6.61406 9.030715,-11.831433 15.483174,-15.661564 6.452459,-3.830131 13.424347,-5.781924 20.932454,-5.906797 4.108209,0 9.495577,1.270764 16.190436,3.76822 6.675972,2.50585 10.96257,3.776614 12.841959,3.776614 1.40508,0 6.167035,-1.485881 14.239689,-4.448199 7.63403,-2.747201 14.07705,-3.884697 19.35528,-3.436624 14.30266,1.154286 25.04801,6.792449 32.19409,16.950166 -12.79159,7.750507 -19.11917,18.606043 -18.99325,32.53198 0.11543,10.847144 4.05049,19.873654 11.78421,27.040724 3.50483,3.32644 7.41891,5.89735 11.77372,7.72323 -0.94442,2.7388 -1.9413,5.36218 -3.00115,7.88062 z M 120.79336,3.4009449 c 0,8.5019461 -3.10608,16.4401821 -9.29725,23.7877381 -7.47138,8.734797 -16.508387,13.782176 -26.308276,12.985718 -0.124873,-1.019969 -0.197278,-2.093455 -0.197278,-3.221507 0,-8.161852 3.553102,-16.89665 9.86285,-24.038533 C 98.003558,9.2982975 102.00998,6.2915921 106.86847,3.8930905 111.71648,1.5303718 116.30214,0.22371991 120.61497,-1.7157505e-6 120.7409,1.1365504 120.79336,2.2732074 120.79336,3.40084 Z" />
</svg>
