<?xml version="1.0" encoding="UTF-8" standalone="no"?>
<svg
   xmlns:dc="http://purl.org/dc/elements/1.1/"
   xmlns:cc="http://creativecommons.org/ns#"
   xmlns:rdf="http://www.w3.org/1999/02/22-rdf-syntax-ns#"
   xmlns:svg="http://www.w3.org/2000/svg"
   xmlns="http://www.w3.org/2000/svg"
   xmlns:sodipodi="http://sodipodi.sourceforge.net/DTD/sodipodi-0.dtd"
   xmlns:inkscape="http://www.inkscape.org/namespaces/inkscape"
   id="svg2"
   height="64"
   version="1.1"
   viewBox="0 0 64 64"
   width="64"
   sodipodi:docname="os-icon-mac.svg"
   inkscape:version="0.92.2 (5c3e80d, 2017-08-06)">
  <sodipodi:namedview
     pagecolor="#ffffff"
     bordercolor="#666666"
     borderopacity="1"
     objecttolerance="10"
     gridtolerance="10"
     guidetolerance="10"
     inkscape:pageopacity="0"
     inkscape:pageshadow="2"
     inkscape:window-width="1920"
     inkscape:window-height="1017"
     id="namedview4514"
     showgrid="false"
     inkscape:zoom="10"
     inkscape:cx="35.664946"
     inkscape:cy="38.998903"
     inkscape:window-x="-8"
     inkscape:window-y="-8"
     inkscape:window-maximized="1"
     inkscape:current-layer="svg2" />
  <metadata
     id="metadata10">
    <rdf:RDF>
      <cc:Work
         rdf:about="">
        <dc:format>image/svg+xml</dc:format>
        <dc:type
           rdf:resource="http://purl.org/dc/dcmitype/StillImage" />
        <dc:title></dc:title>
      </cc:Work>
    </rdf:RDF>
  </metadata>
  <defs
     id="defs8" />
  <path
     id="path4"
     d="m 58.261833,49.87543 c -0.967872,2.23598 -2.113513,4.29419 -3.440881,6.18648 -1.809328,2.57968 -3.290767,4.3653 -4.432459,5.35688 -1.769822,1.6276 -3.666063,2.46115 -5.696617,2.50856 -1.457736,0 -3.215706,-0.4148 -5.262065,-1.25626 -2.053073,-0.8375 -3.939831,-1.2523 -5.665013,-1.2523 -1.809328,0 -3.749812,0.4148 -5.825404,1.2523 -2.078752,0.84146 -3.753368,1.27997 -5.033724,1.32342 -1.947201,0.083 -3.888081,-0.7743 -5.825405,-2.57572 -1.236505,-1.07849 -2.783125,-2.92732 -4.635909,-5.5465 -1.98789,-2.79696 -3.6222109,-6.04032 -4.9025679,-9.73798 -1.371217,-3.99395 -2.058604,-7.86149 -2.058604,-11.60577 0,-4.28906 0.926787,-7.9883 2.783126,-11.08826 1.458919,-2.49 3.3997979,-4.45419 5.8289589,-5.89612 2.429161,-1.44193 5.053872,-2.17672 7.880453,-2.22373 1.54662,0 3.574806,0.4784 6.095223,1.41862 2.513307,0.94338 4.127085,1.42178 4.83462,1.42178 0.528971,0 2.321707,-0.55939 5.360824,-1.67461 2.873988,-1.03424 5.299595,-1.46248 7.286694,-1.29379 5.38453,0.43456 9.429838,2.55716 12.120127,6.38124 -4.815657,2.91784 -7.197805,7.00463 -7.1504,12.24733 0.04346,4.08363 1.524891,7.48185 4.436409,10.18004 1.319465,1.25231 2.793001,2.22018 4.432459,2.90757 -0.355546,1.03108 -0.730842,2.0187 -1.129845,2.96682 z M 45.912578,1.28036 c 0,3.20073 -1.169348,6.18924 -3.500141,8.95538 -2.812755,3.2884 -6.214922,5.18859 -9.904292,4.88874 -0.04701,-0.38399 -0.07427,-0.78812 -0.07427,-1.2128 0,-3.0727 1.337638,-6.36109 3.713072,-9.0498 1.18594,-1.36134 2.69424,-2.49328 4.523319,-3.39624 C 42.495399,0.57614 44.221765,0.08423 45.845418,0 c 0.04741,0.42788 0.06716,0.8558 0.06716,1.28032 z"
     inkscape:connector-curvature="0"
     style="stroke-width:0.3764706" />
</svg>
